<svg width="50" height="50" version="1.1" viewBox="0 0 12.23 15.187" xmlns="http://www.w3.org/2000/svg">
  <g transform="translate(-106.27 -68.197)">
    <g transform="matrix(.26458 0 0 .26458 -83.456 .7047)" fill="#fff">
     <path class="st3" d="m740.8 291.2c-0.2 0.1-0.8 0.1-1.4-0.7s0.3-1 0.3-1.5-1.3-1.6-1.8-1.8-0.2-0.6-0.4-0.8-0.7-0.2-4.3-0.2c-3.5 0-4.3 2.1-4.7 2.1-1.1 0-2.1-1.1-2.1-1.1-0.2 1.1 1.4 1.7 0.9 1.9-0.7 0.2-1.1-0.2-2.3-0.2-2.9 0-3.1 2.1-3.1 2.1 1.7-1.7 7-1.5 7-0.6 0 0.8-0.9 0.4-0.9 0.6s1.1 1.9 1.1 4c0 3.2-3.1 4.1-4 4.1s-1.3-1-2.1-1.8-1.9-0.1-1.9-0.1 0.5-0.1 0.5 0.2-0.4 0.3-0.4 0.8c0 1 1.5 0.7 1.7 0.7s0.8 0.2 0.8 0.7c0 0.6-4.3 0-3.6 0.3 0.6 0.3 0.4 0.8 0.4 1.3s0.4 0.9 0.9 0.9 1-0.3 1.5-0.8 0.8-0.2 1-0.1 0.2 0.6-0.1 0.7-1.9 1.2-1.5 1.2c0.3 0 0.6 0 0.6 0.2 0 0.6 0.6 0.8 0.9 0.8s1.2-0.2 1.2-1.1c0-1.2 0.5-1.9 1.1-1.9s0.6 0.9 0.6 1.4 0.3 0.8 0.9 0.8 0.6-0.6 0.6-0.8 0.8-0.2 1-0.2-0.4-0.5-1.1-1-0.6-0.7-0.2-0.8c0.3-0.1 5.5-1.5 5.1-1.6-0.3-0.2-0.5-0.6-0.2-1 0.6-1 3.6 1 3.6 1-1-1.7-2.6-2.5-3.3-2.5s-0.7-0.3-0.7-0.3c-0.7-4.1 0.3-5.1 1.7-5.2s2.7 0.4 4.4 0.6c1.6 0.3 2.6-0.3 2.3-0.3z"/>
     <path class="st3" d="m760.8 268.4c0.1-0.5 0.7-1.1 1-1.9s0.2-2.1-0.5-2.6c-0.6-0.4-1.5-1.6-1.5-1.6 0 0.6 0.6 1.8 0.1 1.9-1 0.2-2-2-2-2s-0.2 1.4 0.6 2.1c0.9 0.8 1.9 2 1.1 2.5-0.6 0.5-1.6-1-1.6-1-0.2 1.7 1.5 2.3 1.5 2.3 0.2 1.4-3.2 4.3-3.2 4.3l1.1 1c1.9-2 3.3-4.2 3.4-5z"/>
     <path class="st3" d="m763.3 279.3c-1.1-0.3-1 0.5-1.4 0.4-0.9-0.5-0.2-3.5-0.2-3.5-0.2-0.1-0.5 0.4-0.6 0.8-0.1 0.5-0.2 0.8-0.5 0.7-0.8-0.3-0.4-3.8-0.4-3.8-0.3 0.2-0.6 0.9-0.6 1.5s-0.3 0.8-0.3 0.8c-0.3-0.3-1.3-1.3-3.5-3-4.7-4.1-3.9-5.2-3.9-5.2 1.4-0.6 1.9-3 1.6-2.5s-1.4 1.6-1.9 1 0.8-1.4 1.5-2.4c0.8-1 0.8-2.3 0.6-1.9-0.1 0.3-1.5 2-2.2 2-0.8 0 0.1-1.9-0.1-1.9-0.2 0.1-2.3 1.9-2.3 3.6s1.4 2.2 1.4 2.2c0.3 2.8 2.7 4.3 4 6 1.4 1.7 5.7 4 5.7 7.7s-3.6 4.5-3.6 4.5c-0.7-2 0.6-3.1 0.6-3.1-0.9-0.3-1.5 0.3-1.6 0.5s-0.2 0.4-0.6 0c-1-1.7-3.1-1.1-3.1-1.1 4.2 1.9 3.2 4 3.2 4-1.9 0-4.8-1.6-4.8-4.9s4.2-6.1 4.2-6.1l-1-1s-4.7 2.7-4.7 7.1c0 6.1 6.1 6.1 6.1 6.3 0 0.6-1 2-2.9 2s-4-1.5-4.6-1.9c-0.6-0.3-2-0.9-2.5-1.4s-1.1-1.8-1.9-3.2c-0.7-1.4-0.3-2.3-0.1-1.9s1.6 1.5 1.4 1c-1.2-2.4-0.3-5.5-0.2-5.2 0.5 1 2 1.6 1.6 1.1-1.3-2.1-0.1-4.4 0-4.6 0.2-0.2 0.4 0.3 0.8 0.8s0.9 0.6 0.6 0.3c-0.6-1.1-0.6-4.9-0.3-4.8 0.9 0.9 2 1 2 1-1.5-1.6-1.9-3.6-1.9-5.3s-1.6-3.6-1.6-3.8 0.3-0.5 0.3-1c0-0.2-0.1-1-1.1-1s-1.3 0.9-1.3 0.9-0.9-0.5-3.3-0.5c-2.5 0-3.8 0.5-3.8 0.9s-0.8 0.3-0.8 0.3c-1 0-1 1.3-0.5 1.3s0.3-0.6 0.7-0.6c0.1 0 0.3 0 0.3 0.3 0 0.9-1.1 0.6-1.2 0.9-0.2 1.1 0.9 1.9 0.9 1.9s0.6-1.6 1.9-1.6c1.4 0 1.6 1.3 1.6 1.3s-1.9 0.7-4.4 0.7c-4.7 0-2.7-4.1-2.7-4.1-2.6 1.5-2 5.1 1.6 5.1s5.6-1.4 5.8-1c0.2 0.6-0.8 1.9-1.9 1.9-1 0-1.7-0.7-1.7-0.7-0.4 0.9 0.3 2.2 1.6 2.2s2.6-1.4 2.6-1.4c0.5 0.5-0.7 2.6-3.8 2.9-3 0.3-4.5-1-4.5-1-0.2 0.2-0.2 0.6 0 1 0.2 0.3-0.1 0.3-0.1 0.3l-4.4-4.6c-0.9-1.5 0.3-2 0.8-2.7s0.1-1.6 0.1-1.6c0 0.3-0.4 0.7-0.6 0.5s-0.6-0.2-0.8-0.2c-0.2 0.1-0.6 0.2-0.5 1.3 0.2 1-0.1 1.1-0.3 1.1s-0.4-0.2-0.4-0.8c0-0.9-0.2-2.7-0.4-2.1-0.2 0.4-1.3-0.1-1.5 0.1-0.3 0.5-0.5 1.3 0.3 1.9s0.7 1.1 0.5 1.3-0.4 0-1-0.6c-0.6-0.7-1.5-1.4-1.5-1.2 0.1 0.2 0.1 0.6-0.1 0.8s-0.8 0.1-0.8 0.9 1 1.4 1.9 1.3c0.8-0.1 1.3 0.5 1.4 1s-0.4 1-0.8 0.9c-0.3-0.2-1.3-0.2-1.3 0.8s1.1 1 1.1 1.2 0.2 0.8 0.2 0.6c0.4-1 1-2.2 1.4-1.9 0.3 0.3 1.5 2 2.1 2.4s0.6 0.8 0.3 0.8c-1.4 0-2.2 1.1-1.9 1.1 0.2-0.1 0.9-0.3 2-0.3s1.5 0.8 1.7 0.6c0.6-1 1.9-2 2.9-2s1 0.3 1 0.5-0.2 0.4-0.6 0.4c-2.4 0-5 4.6-3.9 3.7s2-0.8 2.3-0.3c0.2 0.5-0.6 0.7-0.6 0.7s-5 1.8-5.9 2.2c-1 0.6-1.3 0.5-1.3 0.5-1.4-0.3-0.8-1.7-1-2.3-0.4-1-1.4-1.7-1.2-1.4s0.1 0.8-0.1 0.8-0.7 0.1-0.7 0.6c0 0.6 0.1 0.9 0.7 1.2s0.3 0.7 0.2 0.8-0.5 0.3-0.8-0.1-2.1-1.9-1.9-1.5c0.1 0.4-0.1 0.6-0.1 0.6s-0.8 0.2-0.8 0.8c0 1.2 1.3 1.2 1.9 1.3 0.6 0 1-0.2 1 0.2 0 1-2.1 0.6-2.5 0.6s-0.6 0.2-0.5 0.2c0.2 0 0.4 0.2 0.4 0.5 0 0.2-0.2 0.4-0.2 0.6s0.2 1 1.2 1 1.4-1.4 2.1-1.4c0.6 0 1 0.4 1 1s-0.6 0.2-0.6 1.3 1.5 0.4 1.5 0.6 0.2 0.8 0.2 0.6c0.1-0.4 0.1-0.9 0-1.9s-0.1-1.3 0.4-1.4c3-0.7 4.6-1 4.4-0.6-0.5 1.2 0 2.3 0 2.3 0.2-1.5 0.7-2 1.1-2.5 0.6-0.7 1.6-0.3 1.5-0.6s-0.1-1.2 0.7-1.2c0.9 0 0.2 2.8 0.5 2.7 0.3-0.2 1-0.8 1.5-1.5s0.9-1.8 1.5-1.2-1.6 2.6-1.4 2.9 1.6 1.7 3 2.7c1.5 1 4.7 2.8 4.7 4.4s-0.6 1.9-0.6 3.7c0 4.2 1.3 3.7 1.3 4.7s-0.9 2.4-0.9 2.4c1.1-0.5 1.8-1.7 1.9-1.5 0.2 0.2 0 0.7 0 1.4 0.1 1.7 0.7 2.9 0.7 2.9-0.1-3.4 0.6-4.2 1-4s0.2 0.6 0.3 0.8c0.8 0.3 0.9 0.2 0.9 3.1 0 2.8-0.7 4.3-1.7 4.3s-1.9-1.8-2.6-2c-0.6-0.2-1.3-0.1-1.3-0.1s0.3 0.2 0.3 0.4c0 0.3-0.4 0.4-0.4 0.8 0 0.7 1 0.8 1.3 0.7s1-0.2 1 0.6-3.2 0.3-3.2 0.3c0.2 0.3 0.7 0.3 0.6 0.6-0.4 0.7-0.1 1.7 0.6 1.6 0.6-0.1 1.6-0.8 1.8-1s0.6-0.3 0.8 0.2c0.2 0.6-2.1 1.9-2.1 1.9 0.5 0.2 0.8-0.1 0.8 0.2 0 0.5 0.2 1 1 1s1-1 1.2-1.8 0.8-1 1-1c0.2-0.1 0.6-0.1 0.6 0.4s0.2 1.4 1.1 1.4 0.9-0.9 1-1c0.1-0.2 0.6-0.1 0.6-0.1-0.4-0.3-1.3-0.8-1.5-0.8-0.2-0.1-0.8-0.2-0.3-0.6 1.9-2.1 3.4-7.7 3.1-7.7-1 0-1-1-0.3-1 2.5 0.1 3.1-1.1 3.1-1.1s-1 0.3-2.2 0.1c-4.7-1.3-4.6-6.8-4.3-7.3 0.3-0.6 0.7-1.8 0.6-2.3-0.2-0.6 0.2-0.6 0.2-0.6 5.6 3 8 9.9 8 9.9 0.2-4.2-3.5-7.9-3.5-7.9 4.4 0.4 4.8-3.2 4.8-3.2 3.8-0.6 5.2-4.5 5.1-6.1 1.6-1.7 2.9-2.5 2.9-2.5zm-28-4.2c-0.1 0-1.3 0.8-1.5 3.1 0 0.2-0.2 0.4-0.4 0.4h-0.1c-0.2 0-0.4-0.2-0.4-0.5 0.2-2.7 1.9-3.7 1.9-3.8 0.2-0.1 0.5-0.1 0.6 0.2 0.1 0.2 0 0.5-0.1 0.6zm4.6-11.7c-0.6 0-0.7-0.2-0.9-0.5 0 0 1.3-0.2 1.3-0.4s-0.4-0.1-0.4-0.1h-1.1s-0.2-0.2-0.2-0.6c0 0 0-0.2 0.4-0.2h1.9s0.4 0 0.4 0.3-0.4 0.2-0.4 0.2 0 1.3-1 1.3zm0.1 8c0.2-0.2 0.4-0.2 0.6-0.2 0.1 0.1 2 1.2 1.2 4.8-0.1 0.2-0.2 0.3-0.4 0.3h-0.1c-0.2-0.1-0.4-0.2-0.3-0.5 0.6-3-0.7-3.9-0.8-4-0.3 0.1-0.3-0.2-0.2-0.4zm-3.1 2.7c0.1-0.2 0.4-0.2 0.6-0.2 0 0 0.8 0.4 1 1.5 0.3 1 0 2.3-0.8 3.8-0.1 0.2-0.2 0.2-0.4 0.2-0.1 0-0.2 0-0.2-0.1-0.2-0.1-0.2-0.4-0.2-0.6 0.7-1.2 1-2.3 0.7-3.1-0.2-0.6-0.6-1-0.6-1-0.2 0-0.3-0.3-0.1-0.5zm-0.3 8.8c-0.1 0-0.2 0.1-0.2 0.1-0.2 0-0.3-0.1-0.4-0.2-0.1-0.2 0-0.5 0.2-0.6 2-1 2.1-2.4 2.1-2.4 0-0.2 0.2-0.4 0.5-0.4s0.4 0.2 0.4 0.5c0 0-0.1 1.8-2.6 3zm3.6 0c-0.1 0-0.2 0.1-0.2 0.1-0.2 0-0.3-0.1-0.4-0.2-0.1-0.2 0-0.5 0.2-0.6 1.7-0.9 1.8-2.5 1.8-2.6 0-0.2 0.2-0.4 0.4-0.4s0.4 0.2 0.4 0.4c0 0 0 2.2-2.2 3.3zm2.7-11c0.2-2.4-0.2-3.1-0.2-3.1-0.1-0.2-0.2-0.3-0.1-0.5s0.2-0.2 0.4-0.2h0.2c1 0 1.3-0.1 1.5-0.2-0.1-0.3-1.2-1-2.4-1.5-0.2-0.1-0.3-0.3-0.2-0.6 0.1-0.2 0.3-0.3 0.6-0.2 0.7 0.2 3 1.1 3 2.3 0 0.2-0.1 0.4-0.2 0.6-0.3 0.3-0.9 0.4-1.5 0.4 0.2 0.6 0.2 1.5 0.2 3.1 0 0.2-0.2 0.4-0.4 0.4-0.7 0-1-0.2-0.9-0.5z"/>
     <path class="st3" d="m736.2 256.7c0.3 0 0.6 0.2 0.6 0.6 0 0.2-0.2 0.4-0.3 0.5l0.6 2.2h7.3l0.6-2.3c-0.2-0.1-0.2-0.2-0.2-0.5s0.2-0.6 0.6-0.6l0.2-0.9s-2.5 0.5-2.5 1.5c0 0.6 0.7 0.6 0.7 0.6s0.4 1-0.6 1h-0.9s-0.8-0.1-1-0.9c0 0 1-0.1 1-0.9 0-0.7-1.7-1.9-1.7-1.9s-1.7 1-1.7 2c0 0.5 1 0.6 1 0.6s0.2 1-0.6 1h-1s-0.9 0-0.9-0.9c0 0 0.8-0.1 0.8-0.8s-1.7-1.5-2.3-1.5zm4.6 0c0.3 0 0.6 0.2 0.6 0.6 0 0.3-0.2 0.6-0.6 0.6s-0.6-0.2-0.6-0.6c0-0.3 0.2-0.6 0.6-0.6z"/>
    </g>
  </g>
</svg>
